<?xml version="1.0" encoding="utf-8"?>
<!-- Generator: Adobe Illustrator 22.1.0, SVG Export Plug-In . SVG Version: 6.00 Build 0)  -->
<svg version="1.1" id="Camada_1" xmlns="http://www.w3.org/2000/svg" xmlns:xlink="http://www.w3.org/1999/xlink" x="0px" y="0px"
	 viewBox="0 0 70 29" style="enable-background:new 0 0 70 29;" xml:space="preserve">
<style type="text/css">
	.st0{fill:#878787;}
	.st1{filter:url(#Adobe_OpacityMaskFilter);}
	.st2{fill:#FFFFFF;}
	.st3{mask:url(#mask-2_1_);fill:#878787;}
</style>
<title>Page 1</title>
<desc>Created with Sketch.</desc>
<g id="Symbols">
	<g id="Footer-Copy" transform="translate(-925.000000, -274.000000)">
		<g id="Page-1" transform="translate(925.000000, 274.000000)">
			<path id="Fill-1" class="st0" d="M25.9,17c0,1.4,0.6,2.3,2.8,2.3c0.5,0,1.2-0.1,1.7-0.2c0,0,1.1-7.3,1.2-7.9
				c-0.4-0.2-1.2-0.3-1.9-0.3c-2.7,0-3.3,2.2-3.6,4.2C26,15.8,25.9,16.5,25.9,17z M21.4,24.9c1.4,0.2,3.7,0.5,5.4,0.5
				c1.7,0,2.7-0.8,3-2.5l0-0.2c-0.8,0.1-1.7,0.2-2.5,0.2c-3.9,0-5.8-1.3-5.8-5.2c0-0.8,0.1-1.6,0.2-2.6c0.9-5.9,3.5-7.8,8.5-7.8
				c2.1,0,4.4,0.5,6,1.5C36.1,10,34,23.8,34,23.8c-0.6,4.1-3.7,5.1-7.2,5.1c-2.1,0-4.4-0.3-5.9-0.6c0,0,0,0,0,0L21.4,24.9z"/>
			<path id="Fill-3" class="st0" d="M39.6,22.7h-4.2c0,0,2.1-12.9,2.3-13.9c2-1.1,4.4-1.5,6.8-1.5c4.3,0,5.4,1.5,5.4,3.8
				c0,0.6-0.1,1.3-0.2,2l-1.5,9.6h-4.3l1.5-9.3c0.1-0.4,0.1-0.8,0.1-1.1c0-1.1-0.5-1.5-2.1-1.5c-0.7,0-1.4,0.1-1.9,0.3
				C41.4,11.8,39.6,22.7,39.6,22.7"/>
			<path id="Fill-5" class="st0" d="M56.6,19.7c2,0,2.7-0.9,3.2-4.3c0.1-0.9,0.2-1.7,0.2-2.3c0-1.5-0.6-2-2-2c-2,0-2.6,0.9-3.2,4.3
				c-0.2,1-0.2,1.8-0.2,2.4C54.5,19.3,55.1,19.7,56.6,19.7 M50.4,15.4c0.9-5.8,3.1-7.9,8.1-7.9c4.1,0,5.8,1.5,5.8,5.1
				c0,0.8-0.1,1.8-0.3,2.8c-0.9,5.7-3.1,8-8.1,8c-4.1,0-5.8-1.5-5.8-5.1C50.2,17.4,50.3,16.4,50.4,15.4"/>
			<path id="Fill-7" class="st0" d="M22.4,4.4c-0.2,1.6-0.9,2.2-2.7,2.2c-1.5,0-2-0.4-2-1.5c0-0.2,0-0.4,0.1-0.7
				c0.2-1.6,0.9-2.2,2.7-2.2c1.5,0,2,0.4,2,1.5C22.5,3.9,22.4,4.2,22.4,4.4z M17.6,7.5h4.3l-2.4,15.2h-4.3L17.6,7.5z"/>
			<g id="Group-11" transform="translate(0.000000, 0.063558)">
				<g id="Clip-10">
				</g>
				<defs>
					<filter id="Adobe_OpacityMaskFilter" filterUnits="userSpaceOnUse" x="0" y="0.2" width="16.8" height="22.7">
						<feColorMatrix  type="matrix" values="1 0 0 0 0  0 1 0 0 0  0 0 1 0 0  0 0 0 1 0"/>
					</filter>
				</defs>
				<mask maskUnits="userSpaceOnUse" x="0" y="0.2" width="16.8" height="22.7" id="mask-2_1_">
					<g class="st1">
						<polygon id="path-1_1_" class="st2" points="0,0.2 16.8,0.2 16.8,22.9 0,22.9 						"/>
					</g>
				</mask>
				<path id="Fill-9" class="st3" d="M11.3,4.4c1.7,0,3.5,0.3,4.9,0.5l0.6-4.1c-1.5-0.3-3.7-0.7-5.9-0.7C5.9,0.2,2.8,1.8,2,6.7
					c-0.1,0.5-0.1,1-0.1,1.4c0,3.1,2,4.3,5.3,5.4c1.7,0.6,2.8,1,2.8,2.3c0,0.1,0,0.3,0,0.4c-0.3,1.8-1.5,2.3-3.6,2.3
					c-1.7,0-4.2-0.3-5.7-0.5L0,22.3c1.6,0.4,3.6,0.6,5.9,0.6c5.2,0,8.5-1.8,9.3-6.8c0.1-0.6,0.2-1.2,0.2-1.7c0-2.8-1.5-4.2-5-5.3
					c-2-0.6-3.2-0.9-3.2-2.3c0-0.2,0-0.3,0-0.5C7.4,4.5,9.7,4.4,11.3,4.4"/>
			</g>
			<path id="Fill-12" class="st0" d="M69.9,7.2c-0.2-1.3-1.2-2.4-2.5-3.3c0.1,0.4,0.1,0.8,0.1,1.2c0,1.5-0.7,2.9-1.8,3.8
				c0,0.1,0.1,0.2,0.1,0.3c1,3.2-1.7,11.1-1.7,11.1S70.3,9.5,69.9,7.2"/>
			<path id="Fill-14" class="st0" d="M67.2,4.8c0-0.4,0-0.8-0.1-1.1c-2.5-1.7-5.8-2.7-5.8-2.7L60.6,5c0,0,3.5,0.5,5,3.5
				C66.6,7.6,67.2,6.3,67.2,4.8"/>
			<path id="Fill-16" class="st0" d="M35.5,27.1c0-0.1,0-0.1,0.1-0.1c0,0,0.1-0.1,0.1-0.1c0,0,0.1,0,0.1,0.1c0,0,0.1,0.1,0.1,0.1
				c0,0,0.1,0.1,0.2,0.1c0.1,0,0.2,0.1,0.3,0.1c0.2,0,0.4-0.1,0.5-0.2c0.1-0.1,0.2-0.2,0.2-0.4c0-0.2-0.1-0.3-0.2-0.4
				c-0.1-0.1-0.2-0.2-0.4-0.3c-0.2-0.1-0.3-0.1-0.5-0.2c-0.2-0.1-0.3-0.2-0.4-0.3c-0.1-0.1-0.2-0.3-0.2-0.5c0-0.2,0-0.3,0.1-0.4
				c0.1-0.1,0.1-0.2,0.3-0.3c0.1-0.1,0.2-0.1,0.3-0.1c0.1,0,0.2,0,0.4,0c0.2,0,0.4,0,0.6,0.1c0.2,0.1,0.3,0.1,0.3,0.2
				c0,0,0,0.1,0,0.1c0,0.1-0.1,0.1-0.1,0.1c0,0-0.1,0-0.2-0.1c-0.1-0.1-0.3-0.1-0.4-0.1c-0.2,0-0.4,0-0.5,0.1C36,24.7,36,24.8,36,25
				c0,0.1,0.1,0.3,0.2,0.4c0.1,0.1,0.2,0.2,0.4,0.2c0.2,0.1,0.3,0.1,0.5,0.2c0.2,0.1,0.3,0.2,0.4,0.3c0.1,0.2,0.2,0.4,0.2,0.6
				c0,0.3-0.1,0.6-0.3,0.7c-0.2,0.2-0.4,0.3-0.8,0.3c-0.3,0-0.5-0.1-0.7-0.2C35.6,27.4,35.5,27.2,35.5,27.1"/>
			<path id="Fill-18" class="st0" d="M38.2,26.7c0,0.1,0.1,0.3,0.2,0.4c0.1,0.1,0.2,0.2,0.4,0.2c0.2,0,0.3-0.1,0.4-0.2
				c0.1-0.1,0.2-0.2,0.2-0.4v-0.5c0-0.1-0.1-0.3-0.2-0.4c-0.1-0.1-0.2-0.2-0.4-0.2s-0.3,0.1-0.4,0.2c-0.1,0.1-0.2,0.2-0.2,0.4V26.7z
				 M37.8,26.7v-0.5c0-0.2,0.1-0.5,0.3-0.6c0.2-0.2,0.4-0.3,0.7-0.3c0.3,0,0.5,0.1,0.7,0.3c0.2,0.2,0.3,0.4,0.3,0.6v0.5
				c0,0.2-0.1,0.5-0.3,0.6c-0.2,0.2-0.4,0.3-0.7,0.3s-0.5-0.1-0.7-0.3C37.9,27.2,37.8,27,37.8,26.7z"/>
			<path id="Fill-20" class="st0" d="M40.1,27.5v-3.4c0,0,0-0.1,0.1-0.1c0,0,0.1,0,0.2,0c0.1,0,0.1,0,0.2,0c0,0,0.1,0.1,0.1,0.1v3.4
				c0,0,0,0.1-0.1,0.1c0,0-0.1,0-0.2,0c-0.1,0-0.1,0-0.2,0C40.1,27.6,40.1,27.5,40.1,27.5"/>
			<path id="Fill-22" class="st0" d="M41,26.7v-1.2c0,0,0-0.1,0.1-0.1c0,0,0.1,0,0.1,0c0.1,0,0.1,0,0.1,0c0,0,0.1,0.1,0.1,0.1v1.2
				c0,0.1,0.1,0.3,0.2,0.4c0.1,0.1,0.2,0.2,0.4,0.2c0.1,0,0.3-0.1,0.4-0.2c0.1-0.1,0.2-0.2,0.2-0.4v-1.2c0,0,0-0.1,0.1-0.1
				c0,0,0.1,0,0.1,0c0.1,0,0.1,0,0.1,0c0,0,0.1,0.1,0.1,0.1v1.3c0,0.2-0.1,0.5-0.3,0.6c-0.2,0.2-0.4,0.3-0.7,0.3
				c-0.3,0-0.5-0.1-0.7-0.3C41.1,27.2,41,27,41,26.7"/>
			<path id="Fill-24" class="st0" d="M43.2,26.7v-0.5c0-0.3,0.1-0.5,0.2-0.7c0.2-0.2,0.4-0.3,0.7-0.3c0.2,0,0.4,0,0.5,0.1
				c0.1,0.1,0.2,0.1,0.2,0.2c0,0,0,0.1-0.1,0.1c0,0-0.1,0.1-0.1,0.1c0,0-0.1,0-0.2-0.1c-0.1-0.1-0.2-0.1-0.3-0.1
				c-0.2,0-0.3,0-0.4,0.1c-0.1,0.1-0.1,0.2-0.1,0.4v0.5c0,0.4,0.2,0.6,0.6,0.6c0.1,0,0.3,0,0.3-0.1c0.1-0.1,0.2-0.1,0.2-0.1
				c0.1,0,0.1,0,0.1,0.1c0,0,0.1,0.1,0.1,0.1c0,0.1-0.1,0.1-0.2,0.2c-0.1,0.1-0.3,0.1-0.5,0.1l-0.1,0.2c0.2,0,0.3,0,0.3,0.1
				c0.1,0.1,0.1,0.1,0.1,0.2c0,0.1,0,0.2-0.1,0.3c-0.1,0.1-0.2,0.1-0.3,0.1c-0.1,0-0.2,0-0.3,0c-0.1,0-0.1-0.1-0.1-0.1
				c0,0,0-0.1,0-0.1c0,0,0-0.1,0.1-0.1c0,0,0,0,0.1,0c0.1,0,0.1,0,0.2,0c0.2,0,0.2-0.1,0.2-0.2c0-0.1-0.1-0.2-0.3-0.2l-0.2,0
				l0.1-0.4c-0.3,0-0.5-0.1-0.6-0.3C43.3,27.2,43.2,27,43.2,26.7"/>
			<path id="Fill-26" class="st0" d="M45.4,26.7c0,0.1,0.1,0.3,0.2,0.4c0.1,0.1,0.2,0.2,0.4,0.2c0.2,0,0.3-0.1,0.4-0.2
				c0.1-0.1,0.2-0.2,0.2-0.4v-0.5c0-0.1-0.1-0.3-0.2-0.4c-0.1-0.1-0.2-0.2-0.4-0.2s-0.3,0.1-0.4,0.2c-0.1,0.1-0.2,0.2-0.2,0.4V26.7z
				 M45.2,24.6c0-0.1,0-0.2,0.1-0.2c0.1,0,0.2-0.1,0.3-0.1c0.1,0,0.2,0,0.3,0.1c0.1,0,0.2,0.1,0.3,0.1c0.1,0,0.2,0,0.2-0.1
				c0.1,0,0.1-0.1,0.1-0.1c0,0,0.1,0,0.1,0.1c0,0,0,0.1,0,0.1c0,0.1,0,0.2-0.1,0.2c-0.1,0-0.2,0.1-0.3,0.1c-0.1,0-0.2,0-0.3-0.1
				c-0.1,0-0.2-0.1-0.3-0.1c-0.1,0-0.2,0-0.2,0.1c-0.1,0-0.1,0.1-0.1,0.1C45.3,24.7,45.3,24.7,45.2,24.6
				C45.2,24.6,45.2,24.6,45.2,24.6z M45,26.7v-0.5c0-0.2,0.1-0.5,0.3-0.6c0.2-0.2,0.4-0.3,0.7-0.3c0.3,0,0.5,0.1,0.7,0.3
				c0.2,0.2,0.3,0.4,0.3,0.6v0.5c0,0.2-0.1,0.5-0.3,0.6s-0.4,0.3-0.7,0.3c-0.3,0-0.5-0.1-0.7-0.3C45.1,27.2,45,27,45,26.7z"/>
			<path id="Fill-28" class="st0" d="M47.6,26.3h0.9c0.1,0,0.1,0,0.2,0c0,0,0-0.1,0-0.1c0-0.1-0.1-0.3-0.2-0.4
				c-0.1-0.1-0.2-0.2-0.4-0.2c-0.1,0-0.3,0.1-0.4,0.2c-0.1,0.1-0.2,0.2-0.2,0.4V26.3z M47.2,26.7v-0.5c0-0.2,0.1-0.5,0.3-0.6
				c0.2-0.2,0.4-0.3,0.7-0.3c0.2,0,0.5,0.1,0.6,0.3c0.2,0.2,0.3,0.4,0.3,0.6c0,0.1,0,0.2,0,0.2s-0.1,0.1-0.1,0.1c0,0-0.1,0-0.1,0
				c0,0-0.1,0-0.2,0h-1v0.1c0,0.2,0.1,0.3,0.2,0.4c0.1,0.1,0.3,0.2,0.5,0.2c0.1,0,0.2,0,0.3,0c0.1,0,0.1-0.1,0.2-0.1
				c0,0,0.1,0,0.1,0c0,0,0.1,0,0.1,0.1c0,0,0,0.1,0,0.1c0,0.1-0.1,0.1-0.2,0.2c-0.1,0.1-0.3,0.1-0.5,0.1c-0.3,0-0.6-0.1-0.8-0.3
				C47.3,27.2,47.2,27,47.2,26.7z"/>
			<path id="Fill-30" class="st0" d="M49.3,27.3c0,0,0-0.1,0-0.1c0,0,0.1-0.1,0.1-0.1c0,0,0.1,0,0.1,0.1c0,0,0.1,0.1,0.2,0.1
				c0.1,0,0.2,0.1,0.3,0.1c0.2,0,0.3,0,0.3-0.1c0.1-0.1,0.1-0.1,0.1-0.2c0-0.1,0-0.2-0.1-0.3c-0.1-0.1-0.2-0.1-0.3-0.1
				c-0.1,0-0.2-0.1-0.3-0.1c-0.1,0-0.2-0.1-0.3-0.2c-0.1-0.1-0.1-0.2-0.1-0.4c0-0.2,0.1-0.3,0.2-0.5c0.1-0.1,0.3-0.2,0.6-0.2
				c0.2,0,0.3,0,0.5,0.1c0.1,0.1,0.2,0.1,0.2,0.2c0,0,0,0.1,0,0.1c0,0-0.1,0.1-0.1,0.1c0,0-0.1,0-0.2-0.1c-0.1,0-0.2-0.1-0.3-0.1
				c-0.1,0-0.3,0-0.3,0.1c-0.1,0.1-0.1,0.1-0.1,0.2c0,0.1,0,0.2,0.1,0.2c0.1,0.1,0.2,0.1,0.3,0.1c0.1,0,0.2,0.1,0.3,0.1
				c0.1,0,0.2,0.1,0.3,0.2c0.1,0.1,0.1,0.2,0.1,0.4c0,0.2-0.1,0.4-0.2,0.5c-0.1,0.1-0.3,0.2-0.6,0.2c-0.2,0-0.4,0-0.6-0.1
				C49.3,27.5,49.3,27.4,49.3,27.3"/>
			<path id="Fill-32" class="st0" d="M51.8,24.3c0,0,0-0.1,0.1-0.1c0.1,0,0.1,0,0.2,0c0.1,0,0.1,0,0.1,0.1l0.8,2.9l0.5-1.8
				c0-0.1,0.1-0.1,0.2-0.1c0.1,0,0.2,0,0.2,0.1l0.5,1.8l0.8-2.9c0-0.1,0.1-0.1,0.2-0.1c0.1,0,0.1,0,0.2,0c0.1,0,0.1,0.1,0.1,0.1
				c0,0,0,0,0,0l-0.9,3.2c0,0.1-0.1,0.1-0.3,0.1c-0.1,0-0.2,0-0.3-0.1l-0.4-1.6l-0.4,1.6c0,0.1-0.1,0.1-0.2,0.1
				c-0.1,0-0.2,0-0.2-0.1L51.8,24.3C51.8,24.3,51.8,24.3,51.8,24.3"/>
			<path id="Fill-34" class="st0" d="M55.8,26.3h0.9c0.1,0,0.1,0,0.2,0c0,0,0-0.1,0-0.1c0-0.1-0.1-0.3-0.2-0.4
				c-0.1-0.1-0.2-0.2-0.4-0.2c-0.1,0-0.3,0.1-0.4,0.2c-0.1,0.1-0.2,0.2-0.2,0.4V26.3z M55.5,26.7v-0.5c0-0.2,0.1-0.5,0.3-0.6
				c0.2-0.2,0.4-0.3,0.7-0.3c0.2,0,0.5,0.1,0.6,0.3c0.2,0.2,0.3,0.4,0.3,0.6c0,0.1,0,0.2,0,0.2c0,0.1-0.1,0.1-0.1,0.1
				c0,0-0.1,0-0.1,0c0,0-0.1,0-0.2,0h-1v0.1c0,0.2,0.1,0.3,0.2,0.4c0.1,0.1,0.3,0.2,0.5,0.2c0.1,0,0.2,0,0.3,0
				c0.1,0,0.1-0.1,0.2-0.1c0,0,0.1,0,0.1,0c0,0,0.1,0,0.1,0.1c0,0,0,0.1,0,0.1c0,0.1-0.1,0.1-0.2,0.2c-0.1,0.1-0.3,0.1-0.5,0.1
				c-0.3,0-0.6-0.1-0.8-0.3C55.5,27.2,55.5,27,55.5,26.7z"/>
			<path id="Fill-36" class="st0" d="M58,26.9c0,0.1,0.1,0.2,0.2,0.3c0.1,0.1,0.2,0.2,0.4,0.2c0.1,0,0.3-0.1,0.4-0.2
				c0.1-0.1,0.2-0.2,0.2-0.4v-0.5c0-0.1-0.1-0.3-0.2-0.4c-0.1-0.1-0.2-0.2-0.4-0.2c-0.1,0-0.3,0.1-0.4,0.2c-0.1,0.1-0.2,0.2-0.2,0.4
				V26.9z M57.6,27.5v-3.4c0,0,0-0.1,0.1-0.1c0,0,0.1,0,0.1,0c0.1,0,0.1,0,0.1,0c0,0,0.1,0.1,0.1,0.1v1.6c0.1-0.1,0.1-0.2,0.2-0.3
				c0.1-0.1,0.2-0.1,0.4-0.1c0.2,0,0.4,0.1,0.6,0.3c0.2,0.2,0.3,0.4,0.3,0.7v0.5c0,0.2-0.1,0.5-0.3,0.6c-0.2,0.2-0.4,0.3-0.6,0.3
				c-0.1,0-0.3,0-0.4-0.1c-0.1-0.1-0.2-0.2-0.3-0.3v0.2c0,0,0,0.1-0.1,0.1c0,0-0.1,0-0.1,0c-0.1,0-0.1,0-0.1,0
				C57.7,27.6,57.6,27.5,57.6,27.5z"/>
		</g>
	</g>
</g>
</svg>
