<?xml version="1.0" encoding="UTF-8"?>
<svg width="55px" height="64px" viewBox="0 0 55 64" version="1.1" xmlns="http://www.w3.org/2000/svg" xmlns:xlink="http://www.w3.org/1999/xlink">
    <!-- Generator: Sketch 49.1 (51147) - http://www.bohemiancoding.com/sketch -->
    <title>Page 1</title>
    <desc>Created with Sketch.</desc>
    <defs>
        <polygon id="path-1" points="0 0.859943662 54.4804754 0.859943662 54.4804754 63.0985915 0 63.0985915"></polygon>
    </defs>
    <g id="Page-1" stroke="none" stroke-width="1" fill="none" fill-rule="evenodd">
        <g id="Ver-Topico---Logado---v4" transform="translate(-1491.000000, -335.000000)">
            <g id="Group" transform="translate(1491.000000, 335.000000)">
                <g id="Group-2">
                    <g id="Page-1">
                        <g id="Group-3" transform="translate(0.000000, 0.041825)">
                            <mask id="mask-2" fill="white">
                                <use xlink:href="#path-1"></use>
                            </mask>
                            <g id="Clip-2"></g>
                            <path d="M36.9742459,0.859312676 L3.454,0.859312676 C1.54703279,0.859312676 -0.000180327869,2.40612958 -0.000180327869,4.31350986 L-0.000180327869,59.6446648 C-0.000180327869,61.5520451 1.54703279,63.098862 3.454,63.098862 L51.0262951,63.098862 C52.9332623,63.098862 54.4804754,61.5520451 54.4804754,59.6446648 L54.4804754,18.2537915 L36.9742459,0.859312676 Z" id="Fill-1" fill="#EA4D49" mask="url(#mask-2)"></path>
                        </g>
                        <path d="M36.9742459,0.934580282 L54.4660492,18.2848901 L40.6899016,18.2848901 C38.7008852,18.2848901 37.0851475,16.6821859 37.0707213,14.6936789 C37.0346557,9.62505915 36.9742459,0.976946479 36.9742459,0.934580282" id="Fill-4" fill="#BC2019"></path>
                        <path d="M31.3020328,43.3738817 L23.1881803,43.3738817 C22.7355574,43.3738817 22.3694918,43.0079099 22.3694918,42.5563042 C22.3694918,42.1037972 22.7355574,41.7378254 23.1881803,41.7378254 L31.3020328,41.7378254 C31.7537541,41.7378254 32.1198197,42.1037972 32.1198197,42.5563042 C32.1198197,43.0079099 31.7537541,43.3738817 31.3020328,43.3738817" id="Fill-6" fill="#FFFFFF"></path>
                        <path d="M31.3020328,46.7840901 L23.1881803,46.7840901 C22.7355574,46.7840901 22.3694918,46.4181183 22.3694918,45.9656113 C22.3694918,45.5140056 22.7355574,45.1480338 23.1881803,45.1480338 L31.3020328,45.1480338 C31.7537541,45.1480338 32.1198197,45.5140056 32.1198197,45.9656113 C32.1198197,46.4181183 31.7537541,46.7840901 31.3020328,46.7840901" id="Fill-8" fill="#FFFFFF"></path>
                        <path d="M34.6770492,50.1098366 C34.6770492,50.3874704 34.452541,50.6119211 34.1748361,50.6119211 L20.3112295,50.6119211 C20.0344262,50.6119211 19.809918,50.3874704 19.809918,50.1098366 L19.809918,44.5796958 L19.8360656,44.5796958 L19.8360656,41.9088225 C19.8360656,41.633893 20.0596721,41.4103437 20.3346721,41.4103437 L34.164918,41.4103437 C34.439918,41.4103437 34.6635246,41.633893 34.6635246,41.9088225 L34.6635246,44.5796958 L34.6770492,44.5796958 L34.6770492,50.1098366 Z M17.6072131,36.2083155 C17.0166393,36.2083155 16.5369672,35.7296676 16.5369672,35.1383437 C16.5369672,34.5470197 17.0166393,34.0674704 17.6072131,34.0674704 C17.6189344,34.0674704 17.6288525,34.0692732 17.6396721,34.0692732 C17.8912295,34.0764845 18.1220492,34.170231 18.3014754,34.322569 C18.302377,34.3234704 18.3032787,34.3252732 18.305082,34.3261746 C18.3285246,34.346907 18.3528689,34.3685408 18.3745082,34.3919775 C18.3772131,34.3937803 18.3790164,34.3964845 18.3817213,34.3991887 C18.402459,34.4208225 18.4222951,34.4433577 18.4412295,34.4667944 C18.4448361,34.4704 18.4484426,34.4758085 18.4520492,34.4812169 C18.4682787,34.5028507 18.4854098,34.5244845 18.5007377,34.5470197 C18.5052459,34.554231 18.5097541,34.5623437 18.5142623,34.5704563 C18.5277869,34.5911887 18.5413115,34.6128225 18.5521311,34.6335549 C18.557541,34.6443718 18.5629508,34.6551887 18.5683607,34.6660056 C18.5782787,34.6858366 18.5872951,34.7056676 18.5963115,34.7264 C18.6017213,34.7399211 18.6062295,34.7543437 18.6116393,34.7669634 C18.6179508,34.785893 18.6251639,34.8048225 18.6314754,34.8228507 C18.6368852,34.8408789 18.6404918,34.8580056 18.645,34.8760338 C18.6495082,34.8913577 18.6540164,34.9084845 18.6567213,34.9247099 C18.6612295,34.9463437 18.6639344,34.9679775 18.667541,34.9905127 C18.6693443,35.0031324 18.6720492,35.0166535 18.6729508,35.0301746 C18.6765574,35.066231 18.6792623,35.1022873 18.6792623,35.1383437 C18.6792623,35.1753014 18.6765574,35.2113577 18.6729508,35.2465127 C18.6720492,35.2600338 18.6693443,35.2726535 18.667541,35.2861746 C18.6639344,35.3078085 18.6612295,35.3303437 18.6567213,35.3519775 C18.6540164,35.3682028 18.6495082,35.3844282 18.645,35.4015549 C18.6404918,35.4186817 18.6368852,35.4367099 18.6314754,35.4529352 C18.6251639,35.4727662 18.6179508,35.489893 18.6116393,35.5088225 C18.6062295,35.5223437 18.6017213,35.5367662 18.5963115,35.5502873 C18.5872951,35.5710197 18.5782787,35.5908507 18.5683607,35.6106817 L18.5521311,35.642231 C18.5413115,35.6647662 18.5277869,35.6854986 18.5142623,35.706231 C18.5097541,35.7134423 18.5052459,35.7215549 18.5007377,35.7296676 C18.4854098,35.7513014 18.4682787,35.7738366 18.4520492,35.7954704 C18.4484426,35.7999775 18.4448361,35.8053859 18.4412295,35.8107944 C18.4222951,35.8333296 18.402459,35.8558648 18.3817213,35.8765972 C18.3790164,35.8793014 18.3772131,35.882907 18.3745082,35.8856113 C18.3528689,35.9081465 18.3285246,35.9297803 18.305082,35.9505127 C18.3032787,35.9514141 18.302377,35.9523155 18.3014754,35.9532169 C18.1220492,36.1055549 17.8912295,36.1993014 17.6396721,36.2074141 C17.6288525,36.2074141 17.6189344,36.2083155 17.6072131,36.2083155 Z M19.809918,28.3795831 C19.809918,28.1019493 20.0344262,27.8774986 20.3112295,27.8774986 L34.1748361,27.8774986 C34.452541,27.8774986 34.6770492,28.1019493 34.6770492,28.3795831 L34.6770492,31.0955268 L19.809918,31.0955268 L19.809918,28.3795831 Z M39.6595082,31.0955268 L36.7327869,31.0955268 L36.7327869,28.4850479 C36.7327869,26.9454423 35.484918,25.697893 33.944918,25.697893 L20.427541,25.697893 C18.887541,25.697893 17.6396721,26.9454423 17.6396721,28.4850479 L17.6396721,31.0955268 L14.8211475,31.0955268 C14.202623,31.0955268 13.7013115,31.5976113 13.7013115,32.2150761 L13.7013115,43.4610479 C13.7013115,44.0794141 14.202623,44.5796958 14.8211475,44.5796958 L17.6396721,44.5796958 L17.6396721,49.9791324 C17.6396721,51.518738 18.887541,52.7671887 20.427541,52.7671887 L33.944918,52.7671887 C35.484918,52.7671887 36.7327869,51.518738 36.7327869,49.9791324 L36.7327869,44.5796958 L39.6595082,44.5796958 C40.2780328,44.5796958 40.7793443,44.0794141 40.7793443,43.4610479 L40.7793443,32.2150761 C40.7793443,31.5976113 40.2780328,31.0955268 39.6595082,31.0955268 Z" id="Fill-10" fill="#FFFFFF"></path>
                    </g>
                </g>
            </g>
        </g>
    </g>
</svg>