<svg id="Camada_1" data-name="Camada 1" xmlns="http://www.w3.org/2000/svg" viewBox="0 0 74.75 74.75"><defs><style>.cls-1{fill:#3b5998;}.cls-2{fill:#fdfdfe;}</style></defs><title>facebook</title><circle class="cls-1" cx="37.38" cy="37.38" r="37.38"/><path class="cls-2" d="M45.23,21.29v5.76a.7.7,0,0,1-.55.11h-3c-1.24,0-1.74.52-1.75,1.77,0,.69,0,1.39,0,2.08a.69.69,0,0,0,.12.53h5.3c-.18,2.32-.41,4.56-.62,6.87h-5V55.49H32.8V38.42H29.41V31.56h3.21a1.12,1.12,0,0,0,.13-.73c0-1.06,0-2.13,0-3.19a8.29,8.29,0,0,1,.39-1.92,6.11,6.11,0,0,1,5.17-4.32A32.79,32.79,0,0,1,43,21.29C43.73,21.27,44.44,21.29,45.23,21.29Z"/></svg>