<?xml version="1.0" encoding="UTF-8"?>
<svg width="19px" height="18px" viewBox="0 0 19 18" version="1.1" xmlns="http://www.w3.org/2000/svg" xmlns:xlink="http://www.w3.org/1999/xlink">
    <!-- Generator: Sketch 49.1 (51147) - http://www.bohemiancoding.com/sketch -->
    <title>Fill 8</title>
    <desc>Created with Sketch.</desc>
    <defs></defs>
    <g id="Symbols" stroke="none" stroke-width="1" fill="none" fill-rule="evenodd">
        <g id="Footer-Copy" transform="translate(-430.000000, -120.000000)" fill="#333333">
            <g id="Group-4" transform="translate(426.000000, 44.000000)">
                <g id="Group-2-Copy">
                    <g id="Group-10" transform="translate(4.000000, 76.000000)">
                        <path d="M15.6815,-0.0004 L4.1415,-0.0004 C2.3575,-0.0004 0.9115,1.4456 0.9115,3.2296 L0.9115,14.7706 C0.9115,16.5546 2.3575,17.9996 4.1415,17.9996 L9.8975,17.9996 L9.8975,11.2136 L9.7145,11.2136 C9.0925,11.2136 8.4715,11.2116 7.8485,11.2156 C7.7465,11.2156 7.6945,11.1996 7.6955,11.0766 C7.7005,10.1626 7.6975,9.2486 7.6985,8.3356 C7.6985,8.3026 7.7035,8.2706 7.7085,8.2236 L9.8975,8.2236 C9.8975,8.1526 9.8955,8.0986 9.8975,8.0436 C9.9145,7.4946 9.8795,6.9366 9.9605,6.3976 C10.1235,5.3136 10.6505,4.4246 11.5575,3.7806 C12.0895,3.4046 12.6815,3.2206 13.3315,3.2216 L15.5275,3.2216 L15.6795,3.2216 L15.6795,6.2086 C15.6165,6.2126 15.5565,6.2186 15.4955,6.2186 C14.8065,6.2196 14.1175,6.2196 13.4285,6.2196 C13.0105,6.2196 12.7425,6.4366 12.7165,6.8586 C12.6885,7.3016 12.7105,7.7466 12.7105,8.2106 L15.6825,8.2106 C15.6855,8.2796 15.6895,8.3306 15.6895,8.3816 C15.6905,9.2706 15.6865,10.1616 15.6935,11.0516 C15.6945,11.1886 15.6495,11.2166 15.5225,11.2166 C14.6425,11.2116 13.7625,11.2136 12.8815,11.2136 L12.6975,11.2136 L12.6975,11.3996 C12.6975,13.2706 12.7035,17.0286 12.7085,17.9996 L15.6815,17.9996 C17.4655,17.9996 18.9115,16.5546 18.9115,14.7706 L18.9115,3.2296 C18.9115,1.4456 17.4655,-0.0004 15.6815,-0.0004" id="Fill-8"></path>
                    </g>
                </g>
            </g>
        </g>
    </g>
</svg>