<?xml version="1.0" encoding="UTF-8"?>
<svg width="75px" height="75px" viewBox="0 0 75 75" version="1.1" xmlns="http://www.w3.org/2000/svg" xmlns:xlink="http://www.w3.org/1999/xlink">
    <!-- Generator: Sketch 49.1 (51147) - http://www.bohemiancoding.com/sketch -->
    <title>Group 10</title>
    <desc>Created with Sketch.</desc>
    <defs>
        <polygon id="path-1" points="0 0 75 0 75 74.9996 0 74.9996"></polygon>
    </defs>
    <g id="Page-1" stroke="none" stroke-width="1" fill="none" fill-rule="evenodd">
        <g id="Home---v2" transform="translate(-1447.000000, -3650.000000)">
            <g id="Group-9" transform="translate(96.000000, 2882.000000)">
                <g id="Page-1" transform="translate(1351.000000, 768.000000)">
                    <g id="Group-10">
                        <mask id="mask-2" fill="white">
                            <use xlink:href="#path-1"></use>
                        </mask>
                        <g id="Clip-9"></g>
                        <path d="M61.542,-0.0004 L13.458,-0.0004 C6.025,-0.0004 0,6.0246 0,13.4586 L0,61.5416 C0,68.9746 6.025,74.9996 13.458,74.9996 L37.44,74.9996 L37.44,46.7236 L36.681,46.7236 C34.089,46.7236 31.498,46.7166 28.906,46.7286 C28.479,46.7316 28.263,46.6656 28.266,46.1516 C28.286,42.3446 28.276,38.5366 28.278,34.7296 C28.278,34.5936 28.303,34.4576 28.321,34.2616 L37.44,34.2616 C37.44,33.9716 37.434,33.7426 37.441,33.5156 C37.513,31.2276 37.368,28.9056 37.707,26.6566 C38.386,22.1426 40.578,18.4356 44.359,15.7556 C46.573,14.1866 49.04,13.4196 51.75,13.4216 C54.8,13.4236 57.85,13.4216 60.899,13.4216 L61.533,13.4216 L61.533,25.8696 C61.271,25.8846 61.019,25.9106 60.766,25.9106 C57.896,25.9136 55.025,25.9126 52.155,25.9126 C50.411,25.9126 49.297,26.8156 49.188,28.5776 C49.072,30.4216 49.162,32.2786 49.162,34.2106 L61.546,34.2106 C61.559,34.4986 61.577,34.7116 61.577,34.9236 C61.579,38.6316 61.565,42.3396 61.592,46.0466 C61.596,46.6196 61.409,46.7366 60.88,46.7336 C57.212,46.7136 53.544,46.7226 49.876,46.7226 L49.108,46.7226 L49.108,47.4996 C49.108,55.2966 49.136,70.9516 49.155,74.9996 L61.542,74.9996 C68.975,74.9996 75,68.9746 75,61.5416 L75,13.4586 C75,6.0246 68.975,-0.0004 61.542,-0.0004" id="Fill-8" fill="#ED6726" mask="url(#mask-2)"></path>
                    </g>
                </g>
            </g>
        </g>
    </g>
</svg>