<svg id="Camada_1" data-name="Camada 1" xmlns="http://www.w3.org/2000/svg" viewBox="0 0 74.75 74.75"><defs><style>.cls-1{fill:#dd4b39;}.cls-2{fill:#fff;}</style></defs><title>elementos-graficos-2</title><circle class="cls-1" cx="37.38" cy="37.38" r="37.38"/><path class="cls-2" d="M38.78,29.38l-4.21,4.43a8.64,8.64,0,0,0-8.73-1.48A8.29,8.29,0,0,0,21,37a8.62,8.62,0,1,0,15.95,6.53H28.72V37.3H43.35c1.35,4.59-.35,12.49-7.58,16.27A14.85,14.85,0,0,1,20.17,28.4C26.42,23.84,34.55,25.16,38.78,29.38Z"/><path class="cls-2" d="M55.68,41.54v5.14H51.84v-5.1H46.68V37.71h5.11V32.64h3.85v5c1.76.16,3.43,0,5.1.11v3.79Z"/></svg>