<?xml version="1.0" encoding="UTF-8"?>
<svg width="76px" height="75px" viewBox="0 0 76 75" version="1.1" xmlns="http://www.w3.org/2000/svg" xmlns:xlink="http://www.w3.org/1999/xlink">
    <!-- Generator: Sketch 49.1 (51147) - http://www.bohemiancoding.com/sketch -->
    <title>Group 3</title>
    <desc>Created with Sketch.</desc>
    <defs>
        <polygon id="path-1" points="0.6239 0 75.827 0 75.827 75 0.6239 75"></polygon>
    </defs>
    <g id="Page-1" stroke="none" stroke-width="1" fill="none" fill-rule="evenodd">
        <g id="Home---v2" transform="translate(-1550.000000, -3650.000000)">
            <g id="Group-9" transform="translate(96.000000, 2882.000000)">
                <g id="Page-1" transform="translate(1351.000000, 768.000000)">
                    <g id="Group-3" transform="translate(103.000000, 0.000000)">
                        <mask id="mask-2" fill="white">
                            <use xlink:href="#path-1"></use>
                        </mask>
                        <g id="Clip-2"></g>
                        <path d="M69.2149,37.4489 C69.1679,37.4479 69.1209,37.4469 69.0729,37.4459 C69.0729,34.2399 69.1489,31.0319 69.0519,27.8289 C68.9589,24.7569 68.8679,21.6659 68.4579,18.6259 C67.6619,12.7219 63.9159,8.6719 58.0739,7.5009 C55.3529,6.9549 52.5229,6.7929 49.7379,6.7579 C42.0809,6.6609 34.4209,6.6879 26.7619,6.7429 C24.4539,6.7599 22.1319,6.9149 19.8409,7.2029 C13.6729,7.9789 9.4549,11.8119 8.2519,17.8709 C7.7899,20.1989 7.6239,22.6169 7.6019,24.9969 C7.5249,33.3159 7.5269,41.6359 7.5959,49.9559 C7.6159,52.2609 7.7889,54.5959 8.2129,56.8569 C9.2259,62.2669 12.4009,65.8969 17.7909,67.2679 C19.8879,67.8019 22.1079,68.0379 24.2769,68.0739 C32.1629,68.2089 40.0509,68.2429 47.9379,68.2249 C50.7059,68.2189 53.4849,68.0679 56.2379,67.7809 C60.1519,67.3739 63.5439,65.8319 65.9629,62.5759 C67.8839,59.9919 68.6519,56.9889 68.7779,53.8499 C68.9989,48.3869 69.0769,42.9159 69.2149,37.4489 M0.6239,37.3889 C0.7529,31.9989 0.8499,26.6069 1.0249,21.2189 C1.1139,18.4629 1.5869,15.7539 2.5919,13.1719 C5.2559,6.3309 10.2999,2.2559 17.4209,0.8299 C19.9959,0.3129 22.6669,0.0939 25.2979,0.0649 C33.9459,-0.0281 42.5949,-0.0111 51.2439,0.0489 C54.9069,0.0739 58.5719,0.3159 62.0679,1.5809 C69.3679,4.2209 73.5619,9.4989 75.0369,17.0239 C75.7839,20.8389 75.7569,24.7179 75.7899,28.5799 C75.8399,34.5079 75.8399,40.4349 75.7889,46.3619 C75.7569,50.1989 75.7319,54.0429 75.0549,57.8449 C73.4669,66.7549 66.8929,73.1779 57.8819,74.3129 C54.3099,74.7629 50.6829,74.8769 47.0779,74.9369 C41.2289,75.0359 35.3759,75.0009 29.5259,74.9519 C25.6369,74.9189 21.7419,74.9039 17.8909,74.2149 C9.1419,72.6499 2.7989,66.3579 1.5209,57.5709 C0.9739,53.8129 0.9269,49.9739 0.7819,46.1679 C0.6699,43.2459 0.7589,40.3169 0.7589,37.3919 C0.7149,37.3909 0.6689,37.3899 0.6239,37.3889" id="Fill-1" fill="#ED6726" mask="url(#mask-2)"></path>
                    </g>
                </g>
            </g>
        </g>
    </g>
</svg>