<?xml version="1.0" encoding="UTF-8"?>
<svg width="19px" height="18px" viewBox="0 0 19 18" version="1.1" xmlns="http://www.w3.org/2000/svg" xmlns:xlink="http://www.w3.org/1999/xlink">
    <!-- Generator: Sketch 49.1 (51147) - http://www.bohemiancoding.com/sketch -->
    <title>Group 3</title>
    <desc>Created with Sketch.</desc>
    <defs>
        <polygon id="path-1" points="0 0.00015 18.0488 0.00015 18.0488 17.9999917 0 17.9999917"></polygon>
    </defs>
    <g id="Symbols" stroke="none" stroke-width="1" fill="none" fill-rule="evenodd">
        <g id="Footer-Copy" transform="translate(-431.000000, -155.000000)">
            <g id="Group-4" transform="translate(426.000000, 44.000000)">
                <g id="Group-2-Copy">
                    <g id="Group" transform="translate(5.000000, 111.000000)">
                        <g id="Group-3">
                            <mask id="mask-2" fill="white">
                                <use xlink:href="#path-1"></use>
                            </mask>
                            <g id="Clip-2"></g>
                            <path d="M16.4618,8.9879 C16.4508,8.9879 16.4398,8.9869 16.4278,8.9869 C16.4278,8.2169 16.4458,7.4479 16.4228,6.6779 C16.3998,5.9409 16.3788,5.1999 16.2798,4.4699 C16.0888,3.0529 15.1898,2.0819 13.7878,1.8009 C13.1348,1.6699 12.4558,1.6309 11.7878,1.6219 C9.9498,1.5979 8.1108,1.6049 6.2738,1.6189 C5.7188,1.6229 5.1618,1.6599 4.6118,1.7289 C3.1318,1.9149 2.1198,2.8349 1.8308,4.2889 C1.7198,4.8469 1.6798,5.4279 1.6748,5.9989 C1.6558,7.9959 1.6568,9.9929 1.6728,11.9899 C1.6778,12.5429 1.7198,13.1029 1.8208,13.6459 C2.0648,14.9439 2.8268,15.8149 4.1198,16.1439 C4.6238,16.2719 5.1558,16.3289 5.6768,16.3379 C7.5688,16.3699 9.4618,16.3789 11.3558,16.3739 C12.0198,16.3729 12.6868,16.3369 13.3468,16.2669 C14.2868,16.1699 15.1008,15.7999 15.6818,15.0179 C16.1428,14.3979 16.3268,13.6769 16.3568,12.9249 C16.4098,11.6129 16.4288,10.2999 16.4618,8.9879 M-0.0002,8.9729 C0.0308,7.6789 0.0538,6.3849 0.0958,5.0919 C0.1178,4.4309 0.2308,3.7809 0.4718,3.1609 C1.1118,1.5189 2.3218,0.5419 4.0308,0.1989 C4.6488,0.0749 5.2908,0.0219 5.9218,0.0149 C7.9978,-0.0061 10.0728,-0.0021 12.1488,0.0109 C13.0278,0.0169 13.9078,0.0759 14.7468,0.3799 C16.4988,1.0129 17.5048,2.2799 17.8588,4.0859 C18.0388,5.0019 18.0318,5.9319 18.0398,6.8589 C18.0518,8.2819 18.0518,9.7049 18.0398,11.1269 C18.0318,12.0479 18.0258,12.9699 17.8628,13.8829 C17.4828,16.0209 15.9038,17.5619 13.7418,17.8359 C12.8848,17.9429 12.0138,17.9699 11.1488,17.9849 C9.7448,18.0089 8.3398,17.9999 6.9368,17.9879 C6.0038,17.9799 5.0678,17.9769 4.1438,17.8109 C2.0448,17.4359 0.5218,15.9259 0.2148,13.8169 C0.0838,12.9149 0.0728,11.9939 0.0378,11.0799 C0.0108,10.3799 0.0328,9.6759 0.0328,8.9739 C0.0218,8.9739 0.0108,8.9729 -0.0002,8.9729" id="Fill-1" fill="#333333" mask="url(#mask-2)"></path>
                        </g>
                    </g>
                </g>
            </g>
        </g>
    </g>
</svg>