<svg id="Camada_1" data-name="Camada 1" xmlns="http://www.w3.org/2000/svg" viewBox="0 0 74.75 74.75"><defs><style>.cls-1{fill:#0077b5;}.cls-2{fill:#fff;}</style></defs><title>elementos-graficos-2</title><circle class="cls-1" cx="37.38" cy="37.38" r="37.38"/><path class="cls-2" d="M33.24,34.6h6c.09.85,0,1.69,0,2.51a16.48,16.48,0,0,1,1.19-1.32,6.72,6.72,0,0,1,3.77-1.64,9.65,9.65,0,0,1,3.93.35,5.56,5.56,0,0,1,3.75,3.6A11.21,11.21,0,0,1,52.58,41c.15,1.65.17,3.3.17,4.95q0,4,0,8.07c0,.21,0,.42,0,.65H46.37c0-.22,0-.43,0-.63,0-3.17,0-6.34,0-9.5a14.17,14.17,0,0,0-.14-2.06,4.77,4.77,0,0,0-.45-1.43,2.35,2.35,0,0,0-2.1-1.32,5.39,5.39,0,0,0-1.33,0,3,3,0,0,0-2.53,2.49,9.27,9.27,0,0,0-.22,2.29q0,4.73,0,9.45c0,.2,0,.41,0,.66H33.24Z"/><path class="cls-2" d="M29.39,54.68H23.1V34.59c2.09,0,4.16,0,6.18,0l.09.09,0,0a1.25,1.25,0,0,1,0,.19V54.43A2,2,0,0,1,29.39,54.68Z"/><path class="cls-2" d="M26.23,32a3.66,3.66,0,0,1-3.67-3.68,3.68,3.68,0,0,1,7.36,0A3.61,3.61,0,0,1,26.23,32Z"/></svg>