<?xml version="1.0" encoding="UTF-8"?>
<svg width="70px" height="29px" viewBox="0 0 70 29" version="1.1" xmlns="http://www.w3.org/2000/svg" xmlns:xlink="http://www.w3.org/1999/xlink">
    <!-- Generator: Sketch 49.1 (51147) - http://www.bohemiancoding.com/sketch -->
    <title>Page 1</title>
    <desc>Created with Sketch.</desc>
    <defs>
        <polygon id="path-1" points="8.23529412e-05 0.21158444 16.831651 0.21158444 16.831651 22.8997097 8.23529412e-05 22.8997097"></polygon>
    </defs>
    <g id="Symbols" stroke="none" stroke-width="1" fill="none" fill-rule="evenodd">
        <g id="Footer-Copy" transform="translate(-925.000000, -274.000000)">
            <g id="Page-1" transform="translate(925.000000, 274.000000)">
                <path d="M25.8651647,17.0199734 C25.8651647,18.4152201 26.4185765,19.3683131 28.6577529,19.3683131 C29.1765765,19.3683131 29.8422627,19.2731139 30.3437922,19.1344421 C30.3437922,19.1344421 31.4679098,11.8635313 31.502498,11.2395085 C31.0525765,11.0488349 30.3179882,10.9448311 29.6347333,10.9448311 C26.9632039,10.9448311 26.3752039,13.1374402 26.0551255,15.1743188 C25.9513608,15.8412638 25.8651647,16.4652865 25.8651647,17.0199734 Z M21.3689686,24.932241 C22.8043804,25.1402486 25.0781451,25.4002581 26.7817529,25.4002581 C28.5196745,25.4002581 29.5136745,24.5767571 29.7472824,22.9303055 L29.7821451,22.68763 C28.9951255,22.8351063 28.0873216,22.9217761 27.3175961,22.9217761 C23.4266941,22.9217761 21.4727333,21.6129241 21.4727333,17.7650588 C21.4727333,17.0026395 21.5504196,16.1444706 21.7063412,15.1743188 C22.639949,9.24637761 25.2252824,7.41750664 30.1966549,7.41750664 C32.3068118,7.41750664 34.6412431,7.86818975 36.1801451,8.93436622 C36.1024588,9.97440417 33.9579882,23.8143378 33.9579882,23.8143378 C33.3095961,27.9395465 30.240302,28.9534459 26.7899882,28.9534459 C24.6834,28.9534459 22.3629686,28.6062163 20.8487725,28.3211689 C20.8432824,28.3203435 20.8380667,28.3189677 20.8325765,28.3181423 L21.3689686,24.932241 Z" id="Fill-1" fill="#BEBEBE"></path>
                <path d="M39.6091569,22.7342941 L35.3600196,22.7342941 C35.3600196,22.7342941 37.4333922,9.82076471 37.6895098,8.79475901 C39.6517059,7.73436053 42.092098,7.29798482 44.5324902,7.29798482 C48.8497059,7.29798482 49.9246863,8.7862296 49.9246863,11.0778899 C49.9246863,11.702463 49.8395882,12.3867419 49.7284118,13.1133928 L48.209549,22.7342941 L43.9436667,22.7342941 L45.4111961,13.4468653 C45.4710392,13.0366281 45.5135882,12.6858216 45.5135882,12.3779374 C45.5135882,11.3004801 45.0271569,10.8470455 43.4231961,10.8387913 C42.7660196,10.8387913 42.0240196,10.9496736 41.5375882,11.137871 C41.3756275,11.7536395 39.6091569,22.7342941 39.6091569,22.7342941" id="Fill-3" fill="#BEBEBE"></path>
                <path d="M56.5515451,19.7081139 C58.5626039,19.7081139 59.2129176,18.7781328 59.7504078,15.3809507 C59.8975451,14.434186 59.9845647,13.6780949 59.9845647,13.0788349 C59.9845647,11.5407894 59.4295059,11.0543378 57.9820157,11.0543378 C55.9794667,11.0543378 55.3382118,11.9405712 54.7919373,15.3809507 C54.6360157,16.3632087 54.5492706,17.1360835 54.5492706,17.7358937 C54.5492706,19.2648596 55.1128392,19.7081139 56.5515451,19.7081139 M50.4404078,15.3809507 C51.3506824,9.62910057 53.5091529,7.43979317 58.5195059,7.43979317 C62.6283686,7.43979317 64.3446039,8.92556167 64.3446039,12.5835787 C64.3446039,13.4002011 64.2578588,14.3384364 64.0931529,15.3809507 C63.1831529,21.1154668 61.0331922,23.3311879 56.0058196,23.3311879 C51.9139765,23.3311879 50.1889569,21.8800873 50.1889569,18.2047362 C50.1889569,17.3795844 50.2759765,16.441074 50.4404078,15.3809507" id="Fill-5" fill="#BEBEBE"></path>
                <path d="M22.401098,4.41099905 C22.1532157,5.9900408 21.4897255,6.59893074 19.7463137,6.59893074 C18.2831765,6.59893074 17.7154902,6.17438615 17.7154902,5.10820968 C17.7154902,4.90020209 17.7393725,4.66770683 17.779451,4.41099905 C18.0273333,2.83223245 18.6987843,2.22306736 20.4339608,2.22306736 C21.8894118,2.22306736 22.4650588,2.6478871 22.4650588,3.72176755 C22.4650588,3.93005028 22.4411765,4.15484156 22.401098,4.41099905 Z M17.5505098,7.49561954 L21.8707451,7.49561954 L19.4632941,22.7365778 L15.1430588,22.7365778 L17.5505098,7.49561954 Z" id="Fill-7" fill="#BEBEBE"></path>
                <g id="Group-11" transform="translate(0.000000, 0.063558)">
                    <mask id="mask-2" fill="white">
                        <use xlink:href="#path-1"></use>
                    </mask>
                    <g id="Clip-10"></g>
                    <path d="M11.3140039,4.42858065 C12.9986706,4.42858065 14.787651,4.70509867 16.187102,4.95327704 L16.831651,0.872916509 C15.3344745,0.541094877 13.1438863,0.211474383 10.9423176,0.211474383 C5.85949412,0.211474383 2.79431765,1.79519355 2.01388627,6.73729981 C1.92823922,7.26227135 1.89008235,7.73001328 1.89008235,8.16859013 C1.89008235,11.288704 3.91761176,12.452556 7.1636902,13.5401935 C8.88651373,14.1124896 9.97137647,14.5516167 9.97137647,15.8395579 C9.97137647,15.9826319 9.96204314,16.1257059 9.93376863,16.2877647 C9.64800392,18.0720626 8.45800392,18.596759 6.37365098,18.596759 C4.68843529,18.596759 2.18518039,18.3108861 0.6622,18.0720626 L8.23529412e-05,22.2638558 C1.6449451,22.6226414 3.59506275,22.8997097 5.91659216,22.8997097 C11.1234941,22.8997097 14.3978471,21.0964269 15.1878863,16.0781063 C15.2834157,15.4579355 15.3402392,14.8949943 15.3402392,14.3799279 C15.3402392,11.565222 13.8460824,10.1339317 10.3142392,9.12278368 C8.26776863,8.5312277 7.10631765,8.23544972 7.10631765,6.86166414 C7.10631765,6.70896015 7.11592549,6.55625617 7.14474902,6.37493738 C7.43957255,4.49544023 9.6669451,4.42858065 11.3140039,4.42858065" id="Fill-9" fill="#BEBEBE" mask="url(#mask-2)"></path>
                </g>
                <path d="M69.9148745,7.19332068 C69.6914235,5.94004744 68.6724431,4.83287476 67.408051,3.91114801 C67.505502,4.30212524 67.5579333,4.71071157 67.5579333,5.13167932 C67.5579333,6.66532258 66.8705608,8.03773245 65.7889922,8.95835863 C65.827698,9.05988615 65.8647569,9.16388994 65.8987961,9.2709203 C66.9238157,12.4980645 64.2201686,20.3877704 64.2201686,20.3877704 C64.2201686,20.3877704 70.3326784,9.53368121 69.9148745,7.19332068" id="Fill-12" fill="#BEBEBE"></path>
                <path d="M67.1933569,4.79724383 C67.1933569,4.40929317 67.1469647,4.03262334 67.0635137,3.66998577 C64.5339059,1.94869545 61.2636706,0.936446869 61.2636706,0.936446869 L60.6191216,5.0168074 C60.6191216,5.0168074 64.1287294,5.56131404 65.5784157,8.48497628 C66.5702196,7.56792694 67.1933569,6.25632353 67.1933569,4.79724383" id="Fill-14" fill="#BEBEBE"></path>
                <path d="M35.4754235,27.1326641 C35.4754235,27.0814877 35.4935412,27.031962 35.5303255,26.9838121 C35.5671098,26.9359374 35.6077373,26.9117249 35.6527569,26.9117249 C35.6813059,26.9117249 35.7180902,26.9318102 35.7625608,26.971981 C35.8073059,27.0118767 35.853698,27.0567249 35.9017373,27.1062505 C35.949502,27.1557761 36.0244431,27.2006243 36.1265608,27.2407951 C36.2286784,27.2806907 36.343698,27.3005009 36.4713451,27.3005009 C36.679149,27.3005009 36.8416588,27.2501499 36.959698,27.1494478 C37.0780118,27.0487457 37.1373059,26.9007192 37.1373059,26.7053681 C37.1373059,26.5295522 37.0826784,26.386203 36.9742471,26.275871 C36.8655412,26.1655389 36.7348745,26.0813454 36.5814235,26.0238406 C36.4285216,25.9663359 36.2742471,25.904704 36.1194235,25.838945 C35.9646,25.7734611 35.8328353,25.672759 35.7241294,25.5365636 C35.6159725,25.4006433 35.5613451,25.2253776 35.5613451,25.0110417 C35.5613451,24.8429298 35.5934627,24.6965541 35.657149,24.5719146 C35.7213843,24.4475503 35.8064824,24.3534516 35.9135412,24.290444 C36.0203255,24.2274364 36.131502,24.1812125 36.2465216,24.1523226 C36.3612667,24.1231575 36.4842471,24.108575 36.6149137,24.108575 C36.8128353,24.108575 37.0022471,24.1374649 37.1826,24.1946945 C37.3629529,24.2524744 37.4529922,24.3319905 37.4529922,24.4337932 C37.4529922,24.4789165 37.4370706,24.5270664 37.4052275,24.578518 C37.3733843,24.6299696 37.3319333,24.655833 37.2806,24.655833 C37.2679725,24.655833 37.1946784,24.6255674 37.0604431,24.5647609 C36.9264824,24.5036793 36.777698,24.4734137 36.6149137,24.4734137 C36.4202863,24.4734137 36.2629922,24.5133093 36.1435804,24.5933757 C36.0236196,24.6734421 35.9637765,24.7997324 35.9637765,24.9725218 C35.9637765,25.1199981 36.0181294,25.2391347 36.1265608,25.3302068 C36.2352667,25.4215541 36.3667569,25.4941917 36.5218549,25.5486698 C36.6764039,25.603148 36.8306784,25.6653302 36.9838549,25.7357666 C37.1373059,25.806203 37.2679725,25.9190114 37.3764039,26.0741917 C37.4851098,26.2293719 37.5394627,26.4271992 37.5394627,26.6671233 C37.5394627,26.9967438 37.4436588,27.2454725 37.252051,27.4135844 C37.0604431,27.5814213 36.8067961,27.6656148 36.4902863,27.6656148 C36.2064431,27.6656148 35.9662471,27.6056338 35.769698,27.486222 C35.5734235,27.3668102 35.4754235,27.2490493 35.4754235,27.1326641" id="Fill-16" fill="#BEBEBE"></path>
                <path d="M38.1953216,26.7328548 C38.1953216,26.8822571 38.2496745,27.0143254 38.3583804,27.1287846 C38.4668118,27.2432438 38.5944588,27.3004734 38.7413216,27.3004734 C38.8914784,27.3004734 39.0207725,27.2426935 39.1292039,27.1265835 C39.2379098,27.0104734 39.2919882,26.8792306 39.2919882,26.7328548 L39.2919882,26.2461281 C39.2919882,26.1030541 39.2379098,25.9742875 39.1292039,25.8598283 C39.0207725,25.7450939 38.8914784,25.6878643 38.7413216,25.6878643 C38.5911647,25.6878643 38.4629686,25.7450939 38.3559098,25.8598283 C38.248851,25.9742875 38.1953216,26.1030541 38.1953216,26.2461281 L38.1953216,26.7328548 Z M37.7981059,26.7342306 L37.7981059,26.2447524 C37.7981059,25.9982249 37.8914392,25.7830636 38.0781059,25.5989934 C38.2650471,25.4149231 38.4860275,25.3230256 38.7413216,25.3230256 C38.9968902,25.3230256 39.2186941,25.4143729 39.4070078,25.5965171 C39.5955961,25.7789364 39.6894784,25.9949231 39.6894784,26.2447524 L39.6894784,26.7342306 C39.6894784,26.9774564 39.5947725,27.1934431 39.4045373,27.3821907 C39.214851,27.5709383 38.9935961,27.6655873 38.7413216,27.6655873 C38.4890471,27.6655873 38.2688902,27.5717638 38.080302,27.384667 C37.8922627,27.1972951 37.7981059,26.9807581 37.7981059,26.7342306 Z" id="Fill-18" fill="#BEBEBE"></path>
                <path d="M40.0919647,27.4830579 L40.0919647,24.1183425 C40.0919647,24.076796 40.1132501,24.0432287 40.156466,24.0173653 C40.1996818,23.9920522 40.2551529,23.9791205 40.3225567,23.9791205 C40.3899606,23.9791205 40.4463992,23.9920522 40.4912275,24.0173653 C40.5363784,24.0432287 40.5586314,24.076796 40.5586314,24.1183425 L40.5586314,27.4830579 C40.5586314,27.5182761 40.5354109,27.551018 40.488325,27.5815588 C40.4415616,27.6118245 40.386413,27.6269573 40.3225567,27.6269573 C40.2587005,27.6269573 40.2045194,27.6126499 40.1593685,27.58376 C40.1142176,27.5551452 40.0919647,27.5215778 40.0919647,27.4830579" id="Fill-20" fill="#BEBEBE"></path>
                <path d="M40.9586471,26.7438605 L40.9586471,25.495815 C40.9586471,25.4575702 40.9784118,25.4237277 41.0184902,25.3951129 C41.0582941,25.366223 41.1055098,25.3516404 41.1595882,25.3516404 C41.2109216,25.3516404 41.2564902,25.3670484 41.2962941,25.397314 C41.336098,25.4275797 41.3561373,25.4603216 41.3561373,25.4952647 L41.3561373,26.7402837 C41.3561373,26.8841831 41.4104902,27.0132249 41.5189216,27.1282343 C41.6276275,27.2432438 41.7569216,27.3004734 41.9068039,27.3004734 C42.0536667,27.3004734 42.1813137,27.2440693 42.2902941,27.1307106 C42.398451,27.017352 42.4528039,26.8872097 42.4528039,26.7402837 L42.4528039,25.4905873 C42.4528039,25.4556442 42.4728431,25.4237277 42.5126471,25.3951129 C42.5527255,25.366223 42.5996667,25.3516404 42.6540196,25.3516404 C42.7113922,25.3516404 42.7586078,25.3653975 42.7951176,25.3926366 C42.831902,25.4198757 42.8505686,25.4526176 42.8505686,25.4911376 L42.8505686,26.7438605 C42.8505686,26.990388 42.7569608,27.2055493 42.5702941,27.3896195 C42.3833529,27.5734146 42.1623725,27.6655873 41.9068039,27.6655873 C41.6484902,27.6655873 41.4255882,27.5734146 41.2389216,27.3896195 C41.0522549,27.2055493 40.9586471,26.990388 40.9586471,26.7438605" id="Fill-22" fill="#BEBEBE"></path>
                <path d="M43.1952157,26.734203 L43.1952157,26.2543548 C43.1952157,25.9789374 43.2756471,25.7549715 43.4370588,25.5821822 C43.5981961,25.4093928 43.835098,25.3229981 44.1480392,25.3229981 C44.3459608,25.3229981 44.5128627,25.3582163 44.6484706,25.4286528 C44.7843529,25.4990892 44.8521569,25.574203 44.8521569,25.6542694 C44.8521569,25.6991176 44.8354118,25.7428653 44.8019216,25.7863378 C44.7681569,25.8295351 44.7291765,25.8509962 44.6844314,25.8509962 C44.6718039,25.8509962 44.6166275,25.8237571 44.5191765,25.7695541 C44.422,25.7150759 44.3078039,25.6878368 44.1768627,25.6878368 C43.9852549,25.6878368 43.8400392,25.7368121 43.7409412,25.8353131 C43.6421176,25.9335389 43.5924314,26.0733112 43.5924314,26.2538046 L43.5924314,26.7298008 C43.5924314,27.1070209 43.7889804,27.2960436 44.1815294,27.2960436 C44.3157647,27.2960436 44.4324314,27.2674288 44.5312549,27.2101992 C44.6303529,27.1529696 44.6877255,27.12463 44.7036471,27.12463 C44.7547059,27.12463 44.7969804,27.1452657 44.8304706,27.1868121 C44.8639608,27.2280835 44.8809804,27.2710057 44.8809804,27.3155787 C44.8809804,27.3912429 44.8200392,27.4644307 44.6989804,27.5348672 C44.5773725,27.6055787 44.4258431,27.6474004 44.2438431,27.6606072 L44.1815294,27.9054839 C44.3347059,27.9085104 44.4497255,27.9440038 44.5265882,28.0111385 C44.6031765,28.0782732 44.6416078,28.1599905 44.6416078,28.2560152 C44.6416078,28.3583681 44.6037255,28.4486148 44.5287843,28.5270304 C44.4538431,28.6054459 44.3429412,28.6447913 44.1960784,28.6447913 C44.1098824,28.6447913 44.0245098,28.6335104 43.9396863,28.6112239 C43.8551373,28.5886622 43.8128627,28.5567457 43.8128627,28.5149241 C43.8128627,28.4926376 43.8208235,28.4648482 43.8367451,28.4310057 C43.8529412,28.3974383 43.8735294,28.3806546 43.8990588,28.3806546 C43.9053725,28.3806546 43.9366667,28.3919355 43.9923922,28.414222 C44.0481176,28.4367837 44.1065882,28.4477894 44.1672549,28.4477894 C44.3333333,28.4477894 44.4162353,28.3886338 44.4162353,28.2703226 C44.4162353,28.1553131 44.3220784,28.0892789 44.1337647,28.0735958 L43.9278824,28.0590133 L44.0332941,27.6606072 C43.7554902,27.6413472 43.5463137,27.5472486 43.4057647,27.3774858 C43.2654902,27.2079981 43.1952157,26.9933871 43.1952157,26.734203" id="Fill-24" fill="#BEBEBE"></path>
                <path d="M45.4411451,26.7328548 C45.4411451,26.8822571 45.495498,27.0143254 45.6042039,27.1287846 C45.7123608,27.2432438 45.8402824,27.3004734 45.9871451,27.3004734 C46.137302,27.3004734 46.2665961,27.2426935 46.3750275,27.1265835 C46.4837333,27.0104734 46.5378118,26.8792306 46.5378118,26.7328548 L46.5378118,26.2461281 C46.5378118,26.1030541 46.4837333,25.9742875 46.3750275,25.8598283 C46.2665961,25.7450939 46.137302,25.6878643 45.9871451,25.6878643 C45.8369882,25.6878643 45.7087922,25.7450939 45.6017333,25.8598283 C45.4946745,25.9742875 45.4411451,26.1030541 45.4411451,26.2461281 L45.4411451,26.7328548 Z M45.2256549,24.5837182 C45.2256549,24.4970484 45.2728706,24.4299137 45.3667529,24.3820389 C45.4611843,24.3341641 45.5528706,24.3102268 45.6423608,24.3102268 C45.7285569,24.3102268 45.8369882,24.3349896 45.9679294,24.3845152 C46.0988706,24.4343159 46.2056549,24.4590787 46.2888314,24.4590787 C46.3687137,24.4590787 46.4420078,24.4343159 46.5092627,24.3845152 C46.5762431,24.3349896 46.6193412,24.3102268 46.6382824,24.3102268 C46.6734196,24.3102268 46.7014196,24.3275607 46.7222824,24.3622287 C46.7428706,24.3968966 46.753302,24.4304639 46.753302,24.463481 C46.753302,24.556204 46.7085569,24.6241641 46.6193412,24.6676366 C46.529851,24.710834 46.4406353,24.7325702 46.3508706,24.7325702 C46.2553412,24.7325702 46.1436157,24.7078074 46.0159686,24.6582818 C45.8880471,24.6087562 45.7826353,24.5837182 45.6997333,24.5837182 C45.619851,24.5837182 45.5440863,24.6076556 45.4721647,24.6558055 C45.4005176,24.7036803 45.354949,24.7278928 45.3357333,24.7278928 C45.3005961,24.7278928 45.2736941,24.7122097 45.2542039,24.6808435 C45.2352627,24.6492021 45.2256549,24.6170104 45.2256549,24.5837182 Z M45.0439294,26.7342306 L45.0439294,26.2447524 C45.0439294,25.9982249 45.1372627,25.7830636 45.3239294,25.5989934 C45.5105961,25.4149231 45.731851,25.3230256 45.9871451,25.3230256 C46.2427137,25.3230256 46.4645176,25.4143729 46.6528314,25.5965171 C46.8414196,25.7789364 46.935302,25.9949231 46.935302,26.2447524 L46.935302,26.7342306 C46.935302,26.9774564 46.8403216,27.1934431 46.6503608,27.3821907 C46.4604,27.5709383 46.2391451,27.6655873 45.9871451,27.6655873 C45.7348706,27.6655873 45.5147137,27.5717638 45.3261255,27.384667 C45.1380863,27.1972951 45.0439294,26.9807581 45.0439294,26.7342306 Z" id="Fill-26" fill="#BEBEBE"></path>
                <path d="M47.6058471,26.3310095 L48.4919647,26.3310095 C48.5745922,26.3310095 48.6305922,26.3205541 48.6594157,26.2999184 C48.6879647,26.2790076 48.7025137,26.2382865 48.7025137,26.1774801 C48.7025137,26.0333055 48.6498078,25.9070152 48.5443961,25.7980588 C48.4389843,25.6893776 48.3096902,25.6348994 48.1565137,25.6348994 C48.0066314,25.6348994 47.8770627,25.6855256 47.7686314,25.7862277 C47.6599255,25.8869298 47.6058471,26.011019 47.6058471,26.1582201 L47.6058471,26.3310095 Z M47.2083569,26.734093 L47.2083569,26.2303074 C47.2083569,25.9837799 47.3016902,25.7710949 47.4883569,25.5917021 C47.675298,25.4125844 47.899298,25.322888 48.1611804,25.322888 C48.4104353,25.322888 48.6259255,25.4065313 48.8079255,25.5738178 C48.9899255,25.7408292 49.0807882,25.9499374 49.0807882,26.2014175 C49.0807882,26.2955161 49.0695333,26.37063 49.047298,26.4273093 C49.0250627,26.4839886 48.990749,26.5244345 48.9443569,26.5489222 C48.8979647,26.5731347 48.8551412,26.5885427 48.8150627,26.594871 C48.7752588,26.6014744 48.7214549,26.6047761 48.6544745,26.6047761 L47.6058471,26.6047761 L47.6058471,26.7486755 C47.6058471,26.9247666 47.6687098,27.0653643 47.7947098,27.171019 C47.9209843,27.2766736 48.0848667,27.3295009 48.2858078,27.3295009 C48.3912196,27.3295009 48.4829059,27.3135427 48.5611412,27.2816262 C48.639651,27.2494345 48.7025137,27.2183435 48.7505529,27.1878027 C48.7983176,27.157537 48.8364745,27.142129 48.865298,27.142129 C48.9100431,27.142129 48.9484745,27.1622144 48.9803176,27.2023852 C49.0121608,27.2422808 49.0280824,27.2830019 49.0280824,27.3245484 C49.0280824,27.3982865 48.9553373,27.4734004 48.8103961,27.5501651 C48.6649059,27.6269298 48.4853765,27.6654497 48.2715333,27.6654497 C47.9585922,27.6654497 47.7030235,27.5798805 47.5053765,27.4087419 C47.3071804,27.2373283 47.2083569,27.0128121 47.2083569,26.734093 Z" id="Fill-28" fill="#BEBEBE"></path>
                <path d="M49.2628431,27.300611 C49.2628431,27.2590645 49.2765686,27.2183435 49.3034706,27.1781727 C49.3306471,27.138277 49.3633137,27.1181917 49.4017451,27.1181917 C49.4272745,27.1181917 49.4637843,27.138277 49.5118235,27.1784478 C49.5595882,27.2183435 49.6284902,27.2574137 49.7177059,27.2959336 C49.8069216,27.3344535 49.9123333,27.3534383 50.0339412,27.3534383 C50.1934314,27.3534383 50.3092745,27.3242732 50.3809216,27.2662182 C50.4528431,27.207888 50.4888039,27.1349753 50.4888039,27.0477552 C50.4888039,26.941 50.4487255,26.855981 50.3688431,26.7926983 C50.2892353,26.7296907 50.1920588,26.6818159 50.0770392,26.6496243 C49.9620196,26.6174326 49.847,26.5816641 49.7322549,26.5428691 C49.6172353,26.504074 49.5197843,26.4394156 49.4401765,26.3486186 C49.3600196,26.2580968 49.3202157,26.1381347 49.3202157,25.9892827 C49.3202157,25.8085142 49.3847255,25.6522334 49.5142941,25.5204402 C49.6435882,25.3889222 49.8404118,25.3231632 50.1055882,25.3231632 C50.2749608,25.3231632 50.4297843,25.3487514 50.5703333,25.3999279 C50.7106078,25.4511044 50.7808824,25.5094345 50.7808824,25.5746433 C50.7808824,25.612888 50.7657843,25.6560854 50.7353137,25.7039602 C50.7051176,25.7518349 50.6675098,25.7757723 50.6227647,25.7757723 C50.6098627,25.7757723 50.5489216,25.7523852 50.4385686,25.705611 C50.3284902,25.6585617 50.2186863,25.6348994 50.1105294,25.6348994 C49.9636667,25.6348994 49.8541373,25.6698425 49.7824902,25.7394535 C49.7105686,25.8090645 49.6746078,25.8874801 49.6746078,25.9749753 C49.6746078,26.0654972 49.7146863,26.136759 49.7945686,26.1884858 C49.8741765,26.2402125 49.972451,26.2806584 50.0888431,26.3098235 C50.2055098,26.3389886 50.3210784,26.374482 50.436098,26.4165787 C50.5508431,26.4586755 50.6482941,26.5307628 50.7281765,26.6325655 C50.8080588,26.7346433 50.8478627,26.8664364 50.8478627,27.0282201 C50.8478627,27.2249469 50.7778627,27.3801271 50.6373137,27.4943112 C50.4967647,27.6084953 50.3002157,27.6654497 50.0482157,27.6654497 C49.8310784,27.6654497 49.6460588,27.6263795 49.4928824,27.5476888 C49.3394314,27.4695484 49.2628431,27.3870057 49.2628431,27.300611" id="Fill-30" fill="#BEBEBE"></path>
                <path d="M51.7961569,24.2814194 C51.7961569,24.2365712 51.8225098,24.1983264 51.8752157,24.1661347 C51.9276471,24.1342182 51.983098,24.11826 52.0404706,24.11826 C52.1200784,24.11826 52.1694902,24.1488008 52.1889804,24.2093321 L52.9982353,27.0606319 L53.453098,25.3038482 C53.4753333,25.2207552 53.5453333,25.1789336 53.6633725,25.1789336 C53.774549,25.1789336 53.8412549,25.2207552 53.8637647,25.3041233 L54.3235686,27.0611822 L55.1284314,24.2090569 C55.1473725,24.1485256 55.1989804,24.11826 55.2824314,24.11826 C55.3400784,24.11826 55.3947059,24.1342182 55.4463137,24.1664099 C55.4973725,24.1983264 55.5231765,24.2368463 55.5231765,24.2816945 C55.5231765,24.3009545 55.5215294,24.315537 55.5185098,24.3248918 L54.573098,27.5165427 C54.5442745,27.6095408 54.460549,27.6557647 54.3224706,27.6557647 C54.1778039,27.6557647 54.0940784,27.6098159 54.0715686,27.5176433 L53.6617255,25.9319981 L53.2461176,27.5162676 C53.2205882,27.6095408 53.1396078,27.6557647 53.0023529,27.6557647 C52.865098,27.6557647 52.7821961,27.6095408 52.7533725,27.5165427 L51.8057647,24.3246167 C51.799451,24.3053567 51.7961569,24.2910493 51.7961569,24.2814194" id="Fill-32" fill="#BEBEBE"></path>
                <path d="M55.8475922,26.3310095 L56.7337098,26.3310095 C56.8166118,26.3310095 56.8723373,26.3205541 56.9011608,26.2999184 C56.9299843,26.2790076 56.9442588,26.2382865 56.9442588,26.1774801 C56.9442588,26.0333055 56.8918275,25.9070152 56.7864157,25.7980588 C56.6810039,25.6893776 56.5514353,25.6348994 56.3982588,25.6348994 C56.2483765,25.6348994 56.1188078,25.6855256 56.010651,25.7862277 C55.9019451,25.8869298 55.8475922,26.011019 55.8475922,26.1582201 L55.8475922,26.3310095 Z M55.4503765,26.734093 L55.4503765,26.2303074 C55.4503765,25.9837799 55.5437098,25.7710949 55.7303765,25.5917021 C55.9170431,25.4125844 56.1413176,25.322888 56.4029255,25.322888 C56.6521804,25.322888 56.8676706,25.4065313 57.0496706,25.5738178 C57.2316706,25.7408292 57.3225333,25.9499374 57.3225333,26.2014175 C57.3225333,26.2955161 57.3115529,26.37063 57.2890431,26.4273093 C57.2668078,26.4839886 57.2324941,26.5244345 57.186102,26.5489222 C57.1397098,26.5731347 57.0968863,26.5885427 57.0568078,26.594871 C57.0170039,26.6014744 56.9634745,26.6047761 56.8964941,26.6047761 L55.8475922,26.6047761 L55.8475922,26.7486755 C55.8475922,26.9247666 55.9104549,27.0653643 56.0367294,27.171019 C56.1627294,27.2766736 56.3266118,27.3295009 56.5278275,27.3295009 C56.6329647,27.3295009 56.724651,27.3135427 56.8028863,27.2816262 C56.8813961,27.2494345 56.9442588,27.2183435 56.992298,27.1878027 C57.0403373,27.157537 57.0784941,27.142129 57.1073176,27.142129 C57.1517882,27.142129 57.1902196,27.1622144 57.2220627,27.2023852 C57.2539059,27.2422808 57.270102,27.2830019 57.270102,27.3245484 C57.270102,27.3982865 57.1973569,27.4734004 57.0521412,27.5501651 C56.906651,27.6269298 56.7271216,27.6654497 56.5132784,27.6654497 C56.2003373,27.6654497 55.9450431,27.5798805 55.7471216,27.4087419 C55.5492,27.2373283 55.4503765,27.0128121 55.4503765,26.734093 Z" id="Fill-34" fill="#BEBEBE"></path>
                <path d="M58.0458118,26.861704 C58.0458118,26.9412201 58.1015373,27.0342182 58.2132627,27.1409734 C58.3252627,27.2474535 58.4512627,27.300556 58.5915373,27.300556 C58.7353804,27.300556 58.8616549,27.2425009 58.9700863,27.1263909 C59.0787922,27.010556 59.1328706,26.8793131 59.1328706,26.7329374 L59.1328706,26.2462106 C59.1328706,26.1031366 59.0787922,25.9740949 58.9700863,25.8596357 C58.8616549,25.7451765 58.7337333,25.6876717 58.5868706,25.6876717 C58.443302,25.6876717 58.3170275,25.7396736 58.2085961,25.842852 C58.0998902,25.9463055 58.0458118,26.0808501 58.0458118,26.2462106 L58.0458118,26.861704 Z M57.6483216,27.4832505 L57.6483216,24.1229374 C57.6483216,24.0813909 57.6667137,24.0478235 57.703498,24.0222353 C57.7400078,23.9966471 57.7872235,23.9839905 57.8445961,23.9839905 C57.9022431,23.9839905 57.9500078,23.9966471 57.9881647,24.0222353 C58.0265961,24.0478235 58.0458118,24.0813909 58.0458118,24.1229374 L58.0458118,25.6926243 C58.1031843,25.5888956 58.1863608,25.5014004 58.2947922,25.4301385 C58.403498,25.3588767 58.529498,25.3231082 58.6730667,25.3231082 C58.9061255,25.3231082 59.1073412,25.4133548 59.2764392,25.5943985 C59.4458118,25.775167 59.5303608,25.991704 59.5303608,26.2445598 L59.5303608,26.7343131 C59.5303608,26.9775389 59.4458118,27.1935256 59.2764392,27.3822732 C59.1073412,27.5710209 58.9107922,27.6653947 58.6876157,27.6653947 C58.5437725,27.6653947 58.4111843,27.6282505 58.2901255,27.5536869 C58.1685176,27.4791233 58.080949,27.3899772 58.0265961,27.2862486 L58.0265961,27.4810493 C58.0265961,27.5201195 58.0082039,27.5542372 57.9714196,27.5834023 C57.9349098,27.6125674 57.8923608,27.6271499 57.8445961,27.6271499 C57.7902431,27.6271499 57.743851,27.6125674 57.7059686,27.5839526 C57.6675373,27.5553378 57.6483216,27.5217704 57.6483216,27.4832505 Z" id="Fill-36" fill="#BEBEBE"></path>
            </g>
        </g>
    </g>
</svg>