<?xml version="1.0" encoding="UTF-8"?>
<svg width="21px" height="17px" viewBox="0 0 21 17" version="1.1" xmlns="http://www.w3.org/2000/svg" xmlns:xlink="http://www.w3.org/1999/xlink">
    <!-- Generator: Sketch 49.1 (51147) - http://www.bohemiancoding.com/sketch -->
    <title>Page 1</title>
    <desc>Created with Sketch.</desc>
    <defs>
        <polygon id="path-1" points="0 0.593 19.0037 0.593 19.0037 14.5134 0 14.5134"></polygon>
        <polygon id="path-3" points="0.215944554 0.419318476 3 0.419318476 3 3.1959 0.215944554 3.1959"></polygon>
        <polygon id="path-5" points="0 17.407 21 17.407 21 1 0 1"></polygon>
    </defs>
    <g id="Symbols" stroke="none" stroke-width="1" fill="none" fill-rule="evenodd">
        <g id="Topo---Logado" transform="translate(-1443.000000, -49.000000)">
            <g id="Group-4" transform="translate(1353.000000, 48.000000)">
                <g id="Page-1" transform="translate(90.000000, 0.000000)">
                    <g id="Group-3" transform="translate(0.000000, 0.407000)">
                        <mask id="mask-2" fill="white">
                            <use xlink:href="#path-1"></use>
                        </mask>
                        <g id="Clip-2"></g>
                        <path d="M18.9827,7.1774 C18.7977,7.8184 18.6287,8.4634 18.4247,9.0984 C17.9017,10.7404 17.3647,12.3794 16.8307,14.0194 C16.7797,14.1764 16.7167,14.3284 16.6487,14.5134 L4.2577,14.5134 C3.4617,12.0744 2.6697,9.6474 1.8627,7.1774 C1.6167,7.1774 1.4027,7.1984 1.1937,7.1734 C0.5677,7.0964 0.0817,6.6044 0.0097,6.0004 C-0.0643,5.3704 0.2707,4.7554 0.8137,4.5284 C1.4087,4.2784 2.1217,4.4604 2.4967,4.9584 C2.8777,5.4644 2.8687,6.2104 2.4617,6.6894 C2.3267,6.8504 2.1577,6.9854 1.9657,7.1674 C2.9307,8.4504 4.0687,9.3764 5.7707,9.4054 C7.0417,9.4274 7.9777,8.8994 8.6607,7.8494 C9.4017,6.7104 9.8527,5.4524 10.2197,4.1574 C10.2777,3.9514 10.3217,3.7424 10.3827,3.4864 C10.2097,3.4064 10.0407,3.3344 9.8787,3.2524 C9.2457,2.9314 8.9447,2.2844 9.1217,1.6334 C9.2907,1.0084 9.8717,0.5734 10.5087,0.5934 C11.1287,0.6134 11.6677,1.0534 11.8007,1.6504 C11.9587,2.3504 11.6747,2.9524 11.0357,3.2604 C10.8887,3.3304 10.7327,3.3804 10.5447,3.4534 C10.8897,4.9844 11.3667,6.4334 12.2047,7.7354 C13.3517,9.5154 15.5037,9.9774 17.2707,8.7814 C17.9117,8.3464 18.4297,7.7294 19.0037,7.1964 L18.9827,7.1774 Z" id="Fill-1" fill="#ED6726" mask="url(#mask-2)"></path>
                    </g>
                    <g id="Group-6" transform="translate(18.000000, 4.407000)">
                        <mask id="mask-4" fill="white">
                            <use xlink:href="#path-3"></use>
                        </mask>
                        <g id="Clip-5"></g>
                        <path d="M1.0042,3.1959 C0.8762,3.0589 0.7492,2.9239 0.6222,2.7879 C0.1502,2.2839 0.0832,1.5639 0.4542,1.0139 C0.8182,0.4759 1.5382,0.2729 2.1682,0.5299 C2.7452,0.7659 3.0902,1.4099 2.9802,2.0449 C2.8632,2.7069 2.3212,3.1659 1.6232,3.1849 C1.4102,3.1909 1.1962,3.1809 0.9832,3.1769 L1.0042,3.1959 Z" id="Fill-4" fill="#ED6726" mask="url(#mask-4)"></path>
                    </g>
                    <mask id="mask-6" fill="white">
                        <use xlink:href="#path-5"></use>
                    </mask>
                    <g id="Clip-8"></g>
                    <polygon id="Fill-7" fill="#ED6726" mask="url(#mask-6)" points="4.264 17.407 16.551 17.407 16.551 15.68 4.264 15.68"></polygon>
                </g>
            </g>
        </g>
    </g>
</svg>