<svg id="Camada_1" data-name="Camada 1" xmlns="http://www.w3.org/2000/svg" viewBox="0 0 74.75 74.75"><defs><style>.cls-1{fill:#cb2027;}.cls-2{fill:#fff;}</style></defs><title>elementos-graficos-2</title><circle class="cls-1" cx="37.38" cy="37.38" r="37.38"/><path class="cls-2" d="M35.11,44.15c-.27,1.2-.5,2.33-.78,3.46a18.65,18.65,0,0,1-1.84,4.89,8.62,8.62,0,0,1-2.28,2.71l-.22.15c0-.48-.13-.92-.16-1.37a24.94,24.94,0,0,1,.56-7.46C30.9,44.34,31.48,42.18,32,40c.16-.64.31-1.29.45-1.94a.71.71,0,0,0,0-.41,5.86,5.86,0,0,1-.63-3.07,6.7,6.7,0,0,1,1.25-3.74A3,3,0,0,1,37.24,30a2.15,2.15,0,0,1,1,1.68,7.59,7.59,0,0,1-.4,2.95c-.36,1.28-.78,2.54-1.13,3.82a5.88,5.88,0,0,0-.24,2.36,2.32,2.32,0,0,0,1.82,2,4.57,4.57,0,0,0,5-1.79,10.36,10.36,0,0,0,1.93-4.14,13.05,13.05,0,0,0,.13-6.15,6.07,6.07,0,0,0-1.58-3.09,8,8,0,0,0-4.64-2.33,10.15,10.15,0,0,0-10,5.19A8,8,0,0,0,28.34,36a7,7,0,0,0,.52,1.28c.14.3.34.57.5.87a2.65,2.65,0,0,1,.14,2.42l-.34.77a5.44,5.44,0,0,1-1.4-.44,5.21,5.21,0,0,1-2.9-3.44,11.37,11.37,0,0,1-.4-2.83,11,11,0,0,1,1.15-5.47A12.47,12.47,0,0,1,30.4,24.1a13.24,13.24,0,0,1,4.53-1.7,15.91,15.91,0,0,1,4-.18,15.25,15.25,0,0,1,3.49.65,11.24,11.24,0,0,1,6.19,4.45A9.36,9.36,0,0,1,50.06,31,15.18,15.18,0,0,1,48,41.89a9.16,9.16,0,0,1-5,4,8.64,8.64,0,0,1-4.25.28A6.46,6.46,0,0,1,36.29,45Z"/></svg>