<svg id="Camada_1" data-name="Camada 1" xmlns="http://www.w3.org/2000/svg" viewBox="0 0 74.75 74.75"><defs><style>.cls-1{fill:#55acee;}.cls-2{fill:#fefefe;}</style></defs><title>elementos-graficos-2</title><circle class="cls-1" cx="37.38" cy="37.38" r="37.38"/><path class="cls-2" d="M52,27.81a.77.77,0,0,1-.12.44,6.58,6.58,0,0,1-2.16,2.81.83.83,0,0,0-.3.27,12.82,12.82,0,0,0,3.42-1,.49.49,0,0,1-.12.28A12.9,12.9,0,0,1,50,33.5a.65.65,0,0,0-.29.59,19.35,19.35,0,0,1-2.15,9.35,18,18,0,0,1-6.42,7.2A16.82,16.82,0,0,1,35,53a18.2,18.2,0,0,1-4.36.26,17.49,17.49,0,0,1-8-2.48,5,5,0,0,1-.65-.44,12.47,12.47,0,0,0,9.26-2.7A6.42,6.42,0,0,1,27,45.77a6.28,6.28,0,0,1-1.6-2.66c.48,0,.93.11,1.38.07A4.73,4.73,0,0,0,28.11,43a6.55,6.55,0,0,1-5-6.52,6,6,0,0,0,2.72.76,7.36,7.36,0,0,1-2-2.46,6.77,6.77,0,0,1-.68-3.16A6.4,6.4,0,0,1,24,28.45a18.16,18.16,0,0,0,9.09,6.18,16,16,0,0,0,4,.67,1,1,0,0,0,0-.45,6.55,6.55,0,0,1,5.21-7.52,6,6,0,0,1,5.17,1.44c.2.16.37.34.57.53a12.12,12.12,0,0,0,2.25-.68,12.26,12.26,0,0,0,1.41-.69c.1-.06.18-.14.3-.13Z"/></svg>