<?xml version="1.0" encoding="UTF-8"?>
<svg width="20px" height="14px" viewBox="0 0 20 14" version="1.1" xmlns="http://www.w3.org/2000/svg" xmlns:xlink="http://www.w3.org/1999/xlink">
    <!-- Generator: Sketch 49.1 (51147) - http://www.bohemiancoding.com/sketch -->
    <title>Fill 1</title>
    <desc>Created with Sketch.</desc>
    <defs></defs>
    <g id="Symbols" stroke="none" stroke-width="1" fill="none" fill-rule="evenodd">
        <g id="Footer-Copy" transform="translate(-430.000000, -90.000000)" fill="#000000">
            <g id="Group-4" transform="translate(426.000000, 44.000000)">
                <g id="Page-1" transform="translate(4.000000, 46.000000)">
                    <path d="M13.2167582,6.99207978 C11.4657908,5.98181209 9.74182291,4.98753281 8.00485527,3.98625859 L8.00485527,9.98491039 C9.74382288,8.986634 11.4647908,7.99835037 13.2167582,6.99207978 M10.1378155,14 C8.60484409,13.9610282 6.92887531,13.9370456 5.25390651,13.8660971 C4.32492382,13.826126 3.39294118,13.7491818 2.47295831,13.6112818 C1.28798039,13.43441 0.523994618,12.6160032 0.319998418,11.4228681 C0.0150040992,9.63516391 -0.0339949881,7.83147134 0.0180040433,6.02478094 C0.0420035963,5.19638142 0.0980025531,4.36698262 0.182000988,3.54158092 C0.235999983,3.01596192 0.305998679,2.47735234 0.480995419,1.98470944 C0.815989179,1.03539756 1.52797592,0.461813333 2.53195722,0.333906048 C3.43694036,0.218989347 4.34792339,0.138048018 5.25790644,0.102074094 C6.82187731,0.041118279 8.38684815,0.00214652815 9.951819,0.000147976829 C11.4047919,-0.00284985016 12.8597648,0.0401190033 14.3127378,0.0910820621 C15.1857215,0.122059608 16.0567053,0.199003834 16.9276891,0.271950957 C17.3646809,0.308924156 17.8026728,0.371878523 18.2066652,0.559742347 C19.0176501,0.935469996 19.4716417,1.58599845 19.6496384,2.44937262 C19.8136353,3.2507917 19.8876339,4.06120427 19.935633,4.87561393 C20.0046317,6.0427679 20.0226314,7.21092115 19.9676324,8.3790744 C19.9156334,9.47328125 19.8606344,10.5674881 19.6196389,11.6407102 C19.3696436,12.7598989 18.5816583,13.5053585 17.4406795,13.64126 C16.5206966,13.7511804 15.5957139,13.8311224 14.6707311,13.8720927 C13.2087583,13.9360464 11.7447856,13.9570311 10.1378155,14" id="Fill-1"></path>
                </g>
            </g>
        </g>
    </g>
</svg>